<svg xmlns="http://www.w3.org/2000/svg" viewBox="0 0 512 512" width="512" height="512" role="img" aria-label="SCA"><title>SCA</title><rect width="512" height="512" rx="112.64" fill="#FFFFFF"/><g transform="translate(63.38 210.63) scale(1.13418)"><path d="M47.5 99.33Q36.39 99.33 27.47 95.41Q18.54 91.49 12.81 84.16Q7.08 76.83 5.56 66.69L25.28 63.78Q27.36 72.39 33.89 77.04Q40.42 81.69 48.75 81.69Q53.4 81.69 57.78 80.24Q62.15 78.78 64.97 75.93Q67.78 73.08 67.78 68.92Q67.78 67.39 67.33 65.97Q66.88 64.54 65.83 63.29Q64.79 62.04 62.88 60.93Q60.97 59.82 58.06 58.92L32.08 51.28Q29.17 50.44 25.31 48.92Q21.46 47.39 17.85 44.54Q14.24 41.69 11.84 37.01Q9.44 32.32 9.44 25.17Q9.44 15.1 14.51 8.43Q19.58 1.76 28.06 -1.5Q36.53 -4.76 46.81 -4.69Q57.15 -4.56 65.28 -1.15Q73.4 2.25 78.89 8.74Q84.38 15.24 86.81 24.61L66.39 28.08Q65.28 23.22 62.29 19.89Q59.31 16.56 55.17 14.82Q51.04 13.08 46.53 12.94Q42.08 12.81 38.16 14.16Q34.24 15.51 31.77 18.08Q29.31 20.65 29.31 24.19Q29.31 27.46 31.32 29.51Q33.33 31.56 36.39 32.81Q39.44 34.06 42.64 34.89L60 39.61Q63.89 40.65 68.61 42.35Q73.33 44.06 77.67 47.08Q82.01 50.1 84.83 55.03Q87.64 59.96 87.64 67.53Q87.64 75.58 84.27 81.59Q80.9 87.6 75.21 91.52Q69.51 95.44 62.33 97.39Q55.14 99.33 47.5 99.33ZM148.33 99.33Q133.33 99.33 122.47 92.81Q111.6 86.28 105.73 74.54Q99.86 62.81 99.86 47.25Q99.86 31.69 105.73 19.96Q111.6 8.22 122.47 1.69Q133.33 -4.83 148.33 -4.83Q165.56 -4.83 177.26 3.71Q188.96 12.25 193.75 26.83L174.72 32.11Q171.94 23.01 165.35 17.98Q158.75 12.94 148.33 12.94Q138.82 12.94 132.47 17.18Q126.11 21.42 122.92 29.13Q119.72 36.83 119.72 47.25Q119.72 57.67 122.92 65.38Q126.11 73.08 132.47 77.32Q138.82 81.56 148.33 81.56Q158.75 81.56 165.35 76.49Q171.94 71.42 174.72 62.39L193.75 67.67Q188.96 82.25 177.26 90.79Q165.56 99.33 148.33 99.33ZM201.81 97.25L232.36 -2.75L260.56 -2.75L291.11 97.25L271.67 97.25L244.44 9.06L248.06 9.06L221.25 97.25ZM220.14 76.42L220.14 58.78L272.92 58.78L272.92 76.42Z" fill="#222D62" stroke="#222D62" stroke-width="5.5" stroke-linejoin="miter"/><rect x="300.86" y="-20" width="36" height="36" fill="#DC071D"/><path d="M311.66 -12.8L329.66 -12.8L329.66 5.2L324.26 5.2L324.26 -7.4L311.66 -7.4Z" fill="#FFFFFF"/></g></svg>
